<svg id="Layer_1" data-name="Layer 1" xmlns="http://www.w3.org/2000/svg" xmlns:xlink="http://www.w3.org/1999/xlink" viewBox="0 0 670.26 670.26"><defs><style>.cls-1{fill:url(#radial-gradient);}.cls-2{fill:#7b5c22;}.cls-3{fill:#0cbaff;}</style><radialGradient id="radial-gradient" cx="-81.88" cy="233.95" r="325.71" gradientTransform="matrix(-1.5, 0, 0, 1.5, 205.16, -173.71)" gradientUnits="userSpaceOnUse"><stop offset="0" stop-color="#fbec29"/><stop offset="0.14" stop-color="#fbe725"/><stop offset="0.31" stop-color="#fcd81b"/><stop offset="0.5" stop-color="#febe0a"/><stop offset="0.5" stop-color="#febe0a"/><stop offset="1" stop-color="#fd7f18"/></radialGradient></defs><title>emoji-sadness</title><circle class="cls-1" cx="335.13" cy="335.13" r="335.13"/><circle class="cls-2" cx="218.48" cy="275.25" r="46.66"/><path class="cls-2" d="M563.31,340.12a46.66,46.66,0,1,1-46.66-46.66A46.66,46.66,0,0,1,563.31,340.12Z" transform="translate(-64.87 -64.87)"/><path class="cls-2" d="M283.35,577.88a12,12,0,0,1-8.49-20.5C312.22,520,353,502.25,397.1,501.44c72.9.41,125.93,53.76,128.14,56a12,12,0,0,1-17.16,16.8c-.48-.48-48.52-48.57-111.32-48.82-36-.5-72.32,16.3-104.92,48.91A12,12,0,0,1,283.35,577.88Z" transform="translate(-64.87 -64.87)"/><path class="cls-3" d="M236.68,521.27c0,39-31.83,70.57-71.1,70.57s-71.11-31.6-71.11-70.57S165.58,358,165.58,358,236.68,482.29,236.68,521.27Z" transform="translate(-64.87 -64.87)"/></svg>