<svg id="Layer_1" data-name="Layer 1" xmlns="http://www.w3.org/2000/svg" xmlns:xlink="http://www.w3.org/1999/xlink" viewBox="0 0 428.67 706.38"><defs><style>.cls-1{fill:#f04d39;}.cls-2{fill:#f18147;}.cls-3{fill:url(#Áĺçűě_ííűé_ăđŕäčĺíň_365);}.cls-4{fill:url(#Áĺçűě_ííűé_ăđŕäčĺíň_365-2);}.cls-5{fill:url(#Áĺçűě_ííűé_ăđŕäčĺíň_365-3);}</style><linearGradient id="Áĺçűě_ííűé_ăđŕäčĺíň_365" x1="-719.37" y1="765.14" x2="-707.48" y2="281.68" gradientTransform="matrix(-1, 0, 0, 1, -301.98, 0)" gradientUnits="userSpaceOnUse"><stop offset="0.02" stop-color="#f4f2ed"/><stop offset="0.12" stop-color="#f5ecc8"/><stop offset="0.3" stop-color="#f7e28d"/><stop offset="0.47" stop-color="#f9da5b"/><stop offset="0.63" stop-color="#fad334"/><stop offset="0.77" stop-color="#fbcf19"/><stop offset="0.9" stop-color="#fccc08"/><stop offset="1" stop-color="#fccb02"/></linearGradient><linearGradient id="Áĺçűě_ííűé_ăđŕäčĺíň_365-2" x1="-695.97" y1="765.72" x2="-684.08" y2="282.25" xlink:href="#Áĺçűě_ííűé_ăđŕäčĺíň_365"/><linearGradient id="Áĺçűě_ííűé_ăđŕäčĺíň_365-3" x1="-652.56" y1="766.72" x2="-640.68" y2="283.34" xlink:href="#Áĺçűě_ííűé_ăđŕäčĺíň_365"/></defs><title>fire-emoji</title><path class="cls-1" d="M218.07,488.87c43.2,103.38,101.83,84.86,109.55,46.29S282.87,367,338.42,313s50.92-148.13,50.92-148.13C410.94,373.15,448,247,448,247c-1.54,270.4,100.29,104.53,100.29,104.53C534.37,416,506.6,470.74,506.6,470.74,429.45,643.94,593,545.57,593,545.57,540.55,710.28,459,742.81,459,742.81h0c102.71-29.36,170.18-124.47,152.49-292.52,0,0-18.51,87.18-74.06,76s41.66-107.62,32.4-195.18S520.49,188,520.49,188s44.74,91.81-6.17,143.11-46.29-127.68-17-172.43c0,0-29.31,9.26-54,44s-10.8-90.27-149.67-155.84c0,0,86.41,60.94,72.52,141.18S307.56,286,286,331.1s-30.86,90.65-23.15,143.5-66.34-11.19-17-143.5c0,0-59.78,70.79-60.18,171.65-.38,98.22,56.48,249.08,198.27,250C225.5,740.18,218.07,488.87,218.07,488.87Z" transform="translate(-185.66 -46.81)"/><path class="cls-2" d="M459,742.81s81.52-32.53,134-197.24c0,0-163.56,98.37-86.41-74.83,0,0,27.77-54.78,41.66-119.2,0,0-101.83,165.87-100.29-104.53,0,0-37,126.14-58.63-82.17,0,0,4.62,94.13-50.92,148.13s-3.09,183.61-10.8,222.19-66.35,57.09-109.55-46.29c0,0,7.43,251.31,165.86,263.84a162.39,162.39,0,0,0,22.87.16c-71.54.7-107.51-40.42-141.29-156.38,0,0,103,50.53,105.7-48.6,2.67-98.1-26.81-129.08-29.17-131.4l-.15-.14.15.14c3,2.85,50.47,45.22,41.51-112.78,0,0,15.82,217.17,96.05,130.77,0,0-76,244.94,35.1,185.15,0,0-22.86,113.28-87.4,130.86A244,244,0,0,0,459,742.81Z" transform="translate(-185.66 -46.81)"/><path class="cls-3" d="M412.87,752.72a65.28,65.28,0,0,0,14.43-2.23,194.4,194.4,0,0,1-20.5,2.38Q409.8,752.84,412.87,752.72Z" transform="translate(-185.66 -46.81)"/><path class="cls-2" d="M514.7,619.63c-111.09,59.79-35.1-185.15-35.1-185.15-80.23,86.4-96.05-130.77-96.05-130.77,9,158-38.49,115.63-41.51,112.78,2.36,2.32,31.84,33.3,29.17,131.4-2.7,99.13-105.7,48.6-105.7,48.6,33.78,116,69.75,157.08,141.29,156.38a194.4,194.4,0,0,0,20.5-2.38C491.84,732.91,514.7,619.63,514.7,619.63Z" transform="translate(-185.66 -46.81)"/><path class="cls-4" d="M514.7,619.63c-111.09,59.79-35.1-185.15-35.1-185.15-80.23,86.4-96.05-130.77-96.05-130.77,9,158-38.49,115.63-41.51,112.78,2.36,2.32,31.84,33.3,29.17,131.4-2.7,99.13-105.7,48.6-105.7,48.6,33.78,116,69.75,157.08,141.29,156.38a194.4,194.4,0,0,0,20.5-2.38C491.84,732.91,514.7,619.63,514.7,619.63Z" transform="translate(-185.66 -46.81)"/><path class="cls-2" d="M342,416.49l-.15-.14Z" transform="translate(-185.66 -46.81)"/><path class="cls-5" d="M342,416.49l-.15-.14Z" transform="translate(-185.66 -46.81)"/><path class="cls-1" d="M258.08,305.44c14.06-18.74,19.68-48.73,6.09-71.22s0-42.63,0-42.63c-15,13.58-46.85,39.82-20.61,69.34C260.82,280.35,258.08,305.44,258.08,305.44Z" transform="translate(-185.66 -46.81)"/><path class="cls-1" d="M432.55,47.74c-36.28,38.55,11.34,103.55,11.34,103.55C477.9,93.85,432.55,47.74,432.55,47.74Z" transform="translate(-185.66 -46.81)"/><path class="cls-1" d="M394.08,89.5c-13.12,3.7.31,17.26.31,17.26C407.39,99.89,394.08,89.5,394.08,89.5Z" transform="translate(-185.66 -46.81)"/><path class="cls-1" d="M596.7,347.51s1.87,19.17-11.57,45.27S592,443.7,592,443.7C619.63,404.6,596.7,347.51,596.7,347.51Z" transform="translate(-185.66 -46.81)"/></svg>