<svg id="Warstwa_1" data-name="Warstwa 1" xmlns="http://www.w3.org/2000/svg" xmlns:xlink="http://www.w3.org/1999/xlink" viewBox="0 0 90.21 92.74"><defs><style>.cls-1{fill:#e3a125;}.cls-2{fill:#e6a623;}.cls-3{fill:#e8ac22;}.cls-4{fill:#ebb022;}.cls-5{fill:#eeb526;}.cls-6{fill:#f0bb2e;}.cls-7{fill:#f4c035;}.cls-8{fill:#f6c53e;}.cls-9{fill:#facc47;}.cls-10{fill:#fed04e;}.cls-11{opacity:0.2;}.cls-12,.cls-13,.cls-14,.cls-15,.cls-16,.cls-17,.cls-18,.cls-19,.cls-20,.cls-21{fill:#ffd14f;}.cls-12{fill-opacity:0;}.cls-13{opacity:0.11;}.cls-13,.cls-14,.cls-15,.cls-16,.cls-17,.cls-18,.cls-19,.cls-20,.cls-22{isolation:isolate;}.cls-14{opacity:0.22;}.cls-15{opacity:0.33;}.cls-16{opacity:0.44;}.cls-17{opacity:0.56;}.cls-18{opacity:0.67;}.cls-19{opacity:0.78;}.cls-20{opacity:0.89;}.cls-22{opacity:0.3;fill:url(#Gradient_bez_nazwy_2);}.cls-23{fill:#c9bea5;}</style><linearGradient id="Gradient_bez_nazwy_2" x1="314.6" y1="25.75" x2="314.6" y2="114.18" gradientTransform="matrix(0.75, -0.66, -0.66, -0.75, -124.33, 307.08)" gradientUnits="userSpaceOnUse"><stop offset="0" stop-color="#e3a125"/><stop offset="0.12" stop-color="#e3a125"/><stop offset="1" stop-color="#e3a125"/></linearGradient></defs><title>emoji</title><g id="Layer_1" data-name="Layer 1"><path class="cls-1" d="M88.71,18.94c-2.92.52-5.06,6.55-5.33,9.52-.56,6-4.28,20.6-5.31,19.43-6.95-8-28-32.25-28-32.25a5.23,5.23,0,0,0-8,6.77l.08.1S55.93,38.4,61.06,44.26c.27.31-.53,1.28-.81,1-5.63-6.41-21.16-24.34-21.16-24.34A5.39,5.39,0,0,0,31,28s17.67,20.26,22.77,26.2c.28.32-.48,1.34-.76,1-5.76-6.81-20.82-24-20.82-24a5.23,5.23,0,1,0-7.9,6.86s16.9,19.48,21.27,24.47c.23.26-.69.67-.9.42-3.26-3.8-10-11.49-13.31-15.31a4.6,4.6,0,0,0-6.94,6S38.87,69.37,43,75.14c3.43,4.77,7.53,10.29,9.55,12.61C62.34,99,75.66,99.11,87.46,88.85s6.63-34,5.85-45.46c-.31-4.72.62-18.88.62-18.88C94,21.53,92,18.36,88.71,18.94Z" transform="translate(-4.89 -3.63)"/><path class="cls-2" d="M31.66,20.51a5.19,5.19,0,0,1,6-.6,5.42,5.42,0,0,1,1.57,1.29c.42.48,13.06,15.08,19.39,22.31a15.13,15.13,0,0,0,1.81,1.77c.3.24,1-.7.79-1-.53-.71-1.35-1.59-2.12-2.48s-1.36-1.57-2.1-2.42c-1.49-1.7-3.1-3.55-4.69-5.39l-8.51-9.81-1.43-1.64c-.1-.12-.2-.24-.29-.37a5,5,0,0,1,.9-6.93,5,5,0,0,1,4.33-1,5.79,5.79,0,0,1,3,1.83c.21.25,2.54,2.93,5.81,6.67l7.42,8.53c4.56,5.25,10,12,13.26,15.21a20.1,20.1,0,0,0,1.5,1.36c.23.19.6-.42,1-1.51s.84-2.39,1.29-4c.81-2.82,1.61-6.22,2.18-9.24.28-1.46.5-2.83.64-4,0-.25.06-.5.08-.74a17.49,17.49,0,0,1,2.71-7.34,6.7,6.7,0,0,1,.69-.81,3.42,3.42,0,0,1,2.06-1.08,3.87,3.87,0,0,1,3.27,1.34,6.57,6.57,0,0,1,1.49,4.58c0,.49-.47,7.36-.59,12.82,0,2.4,0,4.64.07,6.16.83,11.45,5.49,34.29-6,44.29-11.74,10.2-24.78,10.29-34.47-.85-2-2.31-6.1-7.83-9.5-12.56C39,69.23,24.63,53.63,24.56,53.57A4.4,4.4,0,0,1,25,47.36l.19-.16a4.5,4.5,0,0,1,3.21-.87,5.41,5.41,0,0,1,3.17,1.72c2.57,3,6.84,7.82,10.22,11.74A22.29,22.29,0,0,0,44,62.06c.35.31.65.5.89.74s1-.22.74-.49c-.58-.67-1.38-1.56-2.22-2.53l-5.54-6.36C33.92,48.93,29.67,44,26.91,40.84L24.44,38a5,5,0,0,1,.48-7.11l.19-.15a5,5,0,0,1,4.33-.94,5.74,5.74,0,0,1,2.93,1.81l4,4.52C38,38,40,40.29,42,42.66c3.2,3.69,7,8.29,9.54,11,.56.6,1.11,1.1,1.57,1.51.28.25,1-.71.73-1s-.37-.48-.59-.74c-5.6-6.49-21.6-24.83-22-25.32a5.94,5.94,0,0,1-.94-1.47A5.28,5.28,0,0,1,31.66,20.51Z" transform="translate(-4.89 -3.63)"/><path class="cls-3" d="M31.84,20.68a5,5,0,0,1,5.95-.48,5.74,5.74,0,0,1,1.54,1.32c.84,1,13.27,15.33,19.37,22.3a6.73,6.73,0,0,0,1.88,1.52c.31.17,1-.73.77-1.08a30.35,30.35,0,0,0-2.1-2.49c-.65-.77-1.35-1.58-2.09-2.42-1.5-1.71-3.11-3.55-4.69-5.38C49.22,30.22,46,26.52,44,24.17l-1.42-1.64-.29-.36a4.86,4.86,0,0,1-.07-5.77,4.77,4.77,0,0,1,1.07-1.08,4.71,4.71,0,0,1,4.31-.68,6.51,6.51,0,0,1,2.88,1.93l5.8,6.66c2.24,2.56,4.81,5.5,7.42,8.52C68,36.69,73.72,44.24,76.91,46.89a6.4,6.4,0,0,0,1.49,1c.23.1.58-.54,1-1.55s.85-2.42,1.29-4c.82-2.84,1.6-6.2,2.17-9.23.28-1.44.5-2.79.63-4l.09-.74a16.78,16.78,0,0,1,2.77-7.3,4.77,4.77,0,0,1,.72-.77,3.42,3.42,0,0,1,2.08-.88,3.8,3.8,0,0,1,3.05,1.63,7.16,7.16,0,0,1,1.25,4.65c-.05,1-.48,7.76-.56,12.89,0,2.33,0,4.56.14,6.19.91,11.46,5,33.37-6.18,43.11-11.68,10.16-24.43,10.45-34-.59-2-2.31-6.1-7.83-9.47-12.52C39.2,69.08,24.88,53.59,24.76,53.45a4.19,4.19,0,0,1,.41-5.93,3.47,3.47,0,0,1,.37-.3,4.45,4.45,0,0,1,3.2-.63,6.55,6.55,0,0,1,3.09,1.88c2.66,3.05,6.83,7.76,10.17,11.69a11,11,0,0,0,2.24,2.1c.38.24.67.24.86.39s.82-.26.58-.55c-.6-.7-1.44-1.62-2.21-2.51-1.58-1.83-3.52-4-5.52-6.32-3.86-4.42-8-9.24-10.86-12.51l-2.45-2.82a4.87,4.87,0,0,1,.46-6.86l.36-.29a4.78,4.78,0,0,1,4.3-.67A6.58,6.58,0,0,1,32.59,32c.28.32,1.82,2.06,3.94,4.49,1.68,1.93,3.66,4.18,5.68,6.51,3,3.49,7,8.54,9.5,10.92a9.35,9.35,0,0,0,1.63,1.24c.29.18.94-.73.7-1.08a8,8,0,0,0-.55-.75c-5.43-6.3-21.05-24.21-21.91-25.2a6.13,6.13,0,0,1-1-1.44A5.13,5.13,0,0,1,31.84,20.68Z" transform="translate(-4.89 -3.63)"/><path class="cls-4" d="M32,20.85a4.84,4.84,0,0,1,5.92-.35,5.78,5.78,0,0,1,1.5,1.35C40.71,23.3,52.93,37.42,58.8,44.13a4.07,4.07,0,0,0,2,1.28c.32.09,1-.77.75-1.14a23.14,23.14,0,0,0-2.07-2.52c-.66-.77-1.36-1.58-2.09-2.41-1.51-1.72-3.11-3.55-4.69-5.38-3.18-3.68-6.34-7.31-8.49-9.78l-1.42-1.64c-.11-.12-.2-.23-.3-.36a4.67,4.67,0,0,1,1.11-6.76,4.52,4.52,0,0,1,4.3-.42,7.59,7.59,0,0,1,2.79,2c.63.74,2.85,3.31,5.79,6.66,2.28,2.59,4.83,5.51,7.41,8.5,4,4.63,10.16,13,13.24,15.08.59.39,1.09.71,1.48.6.23-.07.55-.65.93-1.6s.85-2.45,1.28-4c.83-2.86,1.59-6.18,2.17-9.22.26-1.41.49-2.77.62-4l.09-.74a16.27,16.27,0,0,1,2.83-7.25,4.38,4.38,0,0,1,.75-.74,3,3,0,0,1,2.11-.66,4.09,4.09,0,0,1,2.81,1.91,8.09,8.09,0,0,1,1,4.73c-.08,1.48-.49,8.15-.52,13,0,2.26.06,4.49.21,6.22C93.84,57,97.44,78,86.52,87.48c-11.61,10.1-24.07,10.6-33.59-.35-2-2.3-6.09-7.82-9.43-12.47C39.39,68.94,25.17,53.56,25,53.34a4,4,0,0,1,.4-5.69,3.22,3.22,0,0,1,.56-.41,4.34,4.34,0,0,1,3.17-.39,8,8,0,0,1,3,2c2.75,3.15,6.82,7.71,10.12,11.64a6.86,6.86,0,0,0,2.31,1.92c.4.17.68,0,.82.05s.66-.31.41-.61c-.61-.72-1.5-1.67-2.2-2.49-1.6-1.86-3.52-4-5.49-6.28-3.81-4.36-7.86-9.07-10.8-12.44-1.28-1.46-2.17-2.5-2.42-2.79a4.7,4.7,0,0,1,1-7,4.57,4.57,0,0,1,4.27-.41,7.74,7.74,0,0,1,2.75,2c.42.48,1.92,2.18,3.91,4.47,1.7,2,3.66,4.17,5.64,6.48,2.84,3.29,7.1,8.78,9.46,10.84a5.28,5.28,0,0,0,1.69,1c.3.11.89-.74.68-1.11a5.06,5.06,0,0,0-.55-.76c-5.25-6.11-20.49-23.59-21.78-25.07a6.25,6.25,0,0,1-1-1.41A5,5,0,0,1,32,20.85Z" transform="translate(-4.89 -3.63)"/><path class="cls-5" d="M32.19,21a4.7,4.7,0,0,1,5.9-.23,6.6,6.6,0,0,1,1.47,1.38C41.25,24.12,53.27,38,58.91,44.43a2.66,2.66,0,0,0,2,1c.34,0,.92-.8.73-1.21a16.67,16.67,0,0,0-2-2.51c-.64-.77-1.35-1.59-2.08-2.41C56,37.61,54.41,35.8,52.84,34c-3.12-3.61-6.22-7.17-8.49-9.78-.7-.82-1.21-1.4-1.42-1.64s-.2-.23-.29-.35a4.53,4.53,0,0,1,1.21-6.69,4.34,4.34,0,0,1,4.27-.16,9.12,9.12,0,0,1,2.72,2.13c.84,1,3,3.5,5.78,6.66,2.31,2.62,4.85,5.52,7.41,8.48,3.73,4.32,10.31,13.52,13.23,15a2.33,2.33,0,0,0,1.47.22,4.12,4.12,0,0,0,.87-1.64c.44-1.12.86-2.47,1.28-4,.84-2.88,1.59-6.16,2.16-9.2.26-1.4.48-2.75.62-4,0-.25,0-.5.09-.74a16,16,0,0,1,2.9-7.21,3.67,3.67,0,0,1,.77-.7A2.84,2.84,0,0,1,89.56,20a4.35,4.35,0,0,1,2.58,2.19,9.44,9.44,0,0,1,.8,4.81c-.1,2-.49,8.55-.48,13,0,2.19.12,4.4.28,6.24,1,11.49,4.11,31.53-6.52,40.77-11.56,10-23.74,10.76-33.17-.09-2-2.29-6.08-7.81-9.39-12.42-4.1-5.71-18.23-21-18.49-21.27A3.89,3.89,0,0,1,25,48.4a3.94,3.94,0,0,1,1.34-1.16,3.63,3.63,0,0,1,3.15-.13c.67,0,2.46,1.63,2.94,2.18,2.83,3.25,6.8,7.66,10.06,11.58a4.94,4.94,0,0,0,2.38,1.75c.42.1.68-.24.79-.29a.44.44,0,0,0,.24-.67c-.63-.75-1.55-1.73-2.19-2.47-1.62-1.9-3.53-4-5.47-6.24-3.76-4.3-7.7-8.9-10.73-12.38-1.19-1.36-2.06-2.37-2.39-2.76a4.53,4.53,0,0,1,.42-6.41,3.8,3.8,0,0,1,.69-.5,4.39,4.39,0,0,1,4.23-.14,9.23,9.23,0,0,1,2.66,2.07c.56.64,2,2.3,3.89,4.45,1.72,2,3.66,4.17,5.61,6.45,2.66,3.09,7.16,9,9.42,10.76a3.61,3.61,0,0,0,1.75.72c.31,0,.84-.76.65-1.15a4,4,0,0,0-.52-.77c-5.09-5.91-20-23-21.68-24.94a7.59,7.59,0,0,1-1-1.38A4.91,4.91,0,0,1,32.19,21Z" transform="translate(-4.89 -3.63)"/><path class="cls-6" d="M32.37,21.19a4.54,4.54,0,0,1,5.86-.1,7.2,7.2,0,0,1,1.45,1.4C41.79,24.93,53.6,38.57,59,44.74a2.18,2.18,0,0,0,2.07.81,1.27,1.27,0,0,0,.71-1.28,13.82,13.82,0,0,0-2-2.53c-.66-.8-1.36-1.6-2.08-2.41C56.16,37.6,54.58,35.79,53,34c-3.05-3.54-6.1-7-8.47-9.77l-1.42-1.63-.3-.35A4.41,4.41,0,0,1,43,16.55a4.89,4.89,0,0,1,1.18-.94,4.22,4.22,0,0,1,4.26.1A11.54,11.54,0,0,1,51,17.94c1,1.24,3.17,3.69,5.77,6.65,2.34,2.65,4.87,5.53,7.4,8.47,3.46,4,10.49,14,13.22,14.94a1.5,1.5,0,0,0,1.46-.16,5.07,5.07,0,0,0,.82-1.69c.45-1.16.86-2.49,1.28-3.94.85-2.9,1.57-6.15,2.14-9.19.26-1.38.48-2.73.62-4,0-.24,0-.49.09-.74.3-2.12,1.41-5.46,3-7.16a3,3,0,0,1,.81-.65,2.65,2.65,0,0,1,2.16-.24,3.71,3.71,0,0,1,2.34,2.47c.5.6.7,2.57.59,4.88s-.5,8.94-.45,13.08c0,2.12.16,4.33.34,6.28,1.08,11.5,3.65,30.61-6.69,39.59-11.5,10-23.38,10.91-32.73.17-2-2.29-6.07-7.81-9.36-12.38-4.09-5.69-18.12-20.87-18.44-21.22a3.74,3.74,0,0,1-.1-4.78,3.67,3.67,0,0,1,1.39-1.08,3.49,3.49,0,0,1,3.13.1c.53,0,2.49,1.9,2.87,2.34,2.92,3.35,6.79,7.6,10,11.52a3.86,3.86,0,0,0,2.44,1.58c.45,0,.7-.48.76-.63a.52.52,0,0,0,.07-.73c-.64-.79-1.61-1.79-2.18-2.46-1.63-1.93-3.53-4-5.44-6.2-3.71-4.23-7.55-8.72-10.67-12.31-1.11-1.26-1.95-2.24-2.37-2.73A4.39,4.39,0,0,1,26.54,31a4.21,4.21,0,0,1,4.19.12,11.4,11.4,0,0,1,2.58,2.17c.7.79,2.13,2.41,3.87,4.42s3.66,4.17,5.58,6.42C45.23,47,50,53.32,52.13,54.76a2.83,2.83,0,0,0,1.81.45A1.08,1.08,0,0,0,54.56,54a3,3,0,0,0-.49-.77c-4.91-5.7-19.4-22.33-21.55-24.79a8.33,8.33,0,0,1-1-1.36A4.78,4.78,0,0,1,32.37,21.19Z" transform="translate(-4.89 -3.63)"/><path class="cls-7" d="M32.55,21.36a4.42,4.42,0,0,1,5.83,0,9,9,0,0,1,1.42,1.44C42.33,25.75,53.94,39.14,59.12,45a1.82,1.82,0,0,0,2.13.56,1.38,1.38,0,0,0,.68-1.34,12.32,12.32,0,0,0-2-2.55c-.65-.8-1.35-1.6-2.07-2.41-1.54-1.73-3.12-3.53-4.68-5.34-3-3.48-6-6.9-8.46-9.76l-1.42-1.63c-.1-.11-.2-.23-.29-.35a4.25,4.25,0,0,1,.58-6,3.78,3.78,0,0,1,.83-.53,4.08,4.08,0,0,1,4.24.35,15.49,15.49,0,0,1,2.56,2.36c1.26,1.49,3.32,3.87,5.76,6.64s4.89,5.54,7.39,8.45c3.18,3.69,10.7,14.41,13.22,14.88a1.48,1.48,0,0,0,1.45-.54,7.94,7.94,0,0,0,.76-1.74c.47-1.19.86-2.52,1.28-3.93C82,39.24,82.66,36,83.23,33c.26-1.36.48-2.71.61-4,0-.24,0-.49.09-.74.32-2.16,1.47-5.51,3-7.12a2.78,2.78,0,0,1,.83-.62,2.62,2.62,0,0,1,2.19,0,3.88,3.88,0,0,1,2.11,2.76c.37.5.48,2.51.36,4.95-.16,3-.5,9.34-.42,13.15,0,2.06.22,4.25.42,6.31,1.12,11.51,3.19,29.69-6.85,38.42-11.45,10-23,11.06-32.3.42-2-2.28-6.07-7.8-9.33-12.34C39.9,68.51,26,53.43,25.58,53a3.6,3.6,0,0,1,.36-5.08A3.55,3.55,0,0,1,27,47.28a3.4,3.4,0,0,1,3.11.34c.4,0,2.51,2.17,2.79,2.49,3,3.45,6.78,7.56,10,11.48A3.16,3.16,0,0,0,45.4,63c.47,0,.7-.72.73-1a.75.75,0,0,0-.1-.8c-.66-.81-1.67-1.84-2.17-2.44-1.65-2-3.54-4-5.42-6.16-3.66-4.16-7.39-8.55-10.61-12.24l-2.34-2.7A4.29,4.29,0,0,1,25.55,32a4.22,4.22,0,0,1,1.35-1,4.1,4.1,0,0,1,4.16.38,16.13,16.13,0,0,1,2.49,2.25c.85,1,2.23,2.53,3.85,4.41,1.75,2,3.65,4.16,5.54,6.38,2.29,2.69,7.31,9.46,9.33,10.61a2.39,2.39,0,0,0,1.87.18,1.18,1.18,0,0,0,.6-1.22,2.58,2.58,0,0,0-.47-.78c-4.74-5.5-18.86-21.7-21.44-24.66a10.43,10.43,0,0,1-1-1.34A4.65,4.65,0,0,1,32.55,21.36Z" transform="translate(-4.89 -3.63)"/><path class="cls-8" d="M32.73,21.53a4.29,4.29,0,0,1,5.8.14,12.22,12.22,0,0,1,1.38,1.47c3,3.42,14.36,16.57,19.31,22.22a1.66,1.66,0,0,0,2.2.32,1.54,1.54,0,0,0,.66-1.4c-.15-.7-1.43-1.92-1.95-2.56-.66-.81-1.35-1.61-2.07-2.41-1.55-1.74-3.13-3.53-4.67-5.33-2.92-3.41-5.86-6.76-8.45-9.75L43.52,22.6l-.3-.35a4.14,4.14,0,0,1,.52-5.82,3.92,3.92,0,0,1,1-.62,4,4,0,0,1,4.23.62,22.86,22.86,0,0,1,2.48,2.44c1.46,1.73,3.48,4.06,5.75,6.63s4.91,5.55,7.39,8.44c2.9,3.38,11,15.29,13.2,14.81a2,2,0,0,0,1.44-.92A13.85,13.85,0,0,0,79.93,46c.48-1.22.86-2.54,1.27-3.92A91.07,91.07,0,0,0,83.33,33c.25-1.34.47-2.68.6-4,0-.23,0-.48.09-.73.35-2.2,1.54-5.55,3.1-7.08a2.42,2.42,0,0,1,.86-.58,2.57,2.57,0,0,1,2.21.18,4.1,4.1,0,0,1,1.88,3c.24.4.27,2.46.14,5-.19,3.45-.51,9.74-.38,13.22.07,2,.26,4.17.48,6.34,1.16,11.52,2.72,28.76-7,37.24-11.38,9.89-22.69,11.22-31.86.66-2-2.26-6.06-7.79-9.29-12.28-4.06-5.65-17.9-20.63-18.35-21.12A3.48,3.48,0,0,1,26.16,48a3.38,3.38,0,0,1,4.33-.1,24,24,0,0,1,2.72,2.64C36.3,54.07,40,58,43.11,61.94a2.73,2.73,0,0,0,2.57,1.23c.49-.13.7-1,.7-1.31a1.21,1.21,0,0,0-.26-.86c-.68-.84-1.73-1.9-2.16-2.42-1.68-2-3.55-4-5.39-6.12C35,48.36,31.32,44.07,28,40.29L25.7,37.62a4.14,4.14,0,0,1,1.56-6.56,4,4,0,0,1,4.12.65,25.38,25.38,0,0,1,2.41,2.34c1,1.12,2.34,2.64,3.83,4.38,1.76,2.07,3.65,4.16,5.5,6.36,2.11,2.48,7.41,9.65,9.29,10.52a2.22,2.22,0,0,0,1.93-.08A1.27,1.27,0,0,0,54.91,54a2.08,2.08,0,0,0-.45-.79C49.9,47.87,36.15,32.11,33.14,28.66a16.27,16.27,0,0,1-1-1.31A4.54,4.54,0,0,1,32.73,21.53Z" transform="translate(-4.89 -3.63)"/><path class="cls-9" d="M32.91,21.7a4.18,4.18,0,0,1,5.77.27c.06,0,.56.58,1.35,1.5,3.39,3.9,14.57,16.81,19.29,22.19a1.56,1.56,0,0,0,2.26.09,1.79,1.79,0,0,0,.64-1.47c-.1-.7-1.44-2-1.92-2.57-.65-.82-1.35-1.62-2.06-2.41Q55.89,36.67,53.57,34c-2.85-3.33-5.73-6.62-8.44-9.73l-1.42-1.63-.3-.35a4,4,0,0,1,.46-5.66A3.68,3.68,0,0,1,45,15.91a3.93,3.93,0,0,1,4.21.87c.81.81,1.63,1.66,2.39,2.55,1.68,2,3.64,4.25,5.75,6.62,2.44,2.75,4.93,5.57,7.38,8.43C67.39,37.44,75.86,49.46,78,49.13a2,2,0,0,0,1.43-1.3c.25-.53.42-1.21.66-1.84.49-1.26.86-2.57,1.27-3.92a91.45,91.45,0,0,0,2.11-9.16c.25-1.32.47-2.65.6-4,0-.23,0-.48.09-.74.37-2.23,1.6-5.59,3.16-7a2.2,2.2,0,0,1,.89-.54A2.59,2.59,0,0,1,90.4,21,5.27,5.27,0,0,1,92,24.35,44.28,44.28,0,0,1,92,29.46c-.21,3.94-.51,10.13-.35,13.28.09,1.92.31,4.1.56,6.37C93.37,60.65,94.43,77,85,85.18,73.65,95,62.63,96.55,53.54,86.1c-1.95-2.26-6-7.78-9.25-12.24C40.24,68.22,26.5,53.35,26,52.79a3.39,3.39,0,0,1,1.8-5.49,3.29,3.29,0,0,1,3.06.83c.14,0,2.55,2.69,2.64,2.8,3.19,3.65,6.75,7.45,9.86,11.36A2.41,2.41,0,0,0,46,63.35c.52-.2.72-1.22.67-1.65a2.09,2.09,0,0,0-.42-.92c-.7-.87-1.79-2-2.16-2.4-1.7-2-3.56-4-5.38-6.08-3.57-4-7.09-8.21-10.48-12.1l-2.29-2.65a4,4,0,0,1,1.7-6.44A4,4,0,0,1,31.7,32c.78.78,1.57,1.58,2.32,2.43,1.13,1.28,2.44,2.76,3.81,4.35,1.78,2.09,3.66,4.17,5.47,6.33S50.79,55,52.55,55.58a2.16,2.16,0,0,0,2-.34A1.39,1.39,0,0,0,55.08,54a1.82,1.82,0,0,0-.42-.8c-4.39-5.11-17.76-20.45-21.2-24.4-.66-.76-1.05-1.23-1.08-1.28C31.24,25.56,31.2,23.18,32.91,21.7Z" transform="translate(-4.89 -3.63)"/><path class="cls-10" d="M84.66,84.72c-11.26,9.79-22,11.53-31,1.17-2-2.25-6.05-7.77-9.23-12.19-4-5.62-17.68-20.39-18.26-21a3.29,3.29,0,0,1,5-4.29h0l2.57,3c3.27,3.75,6.73,7.4,9.8,11.31a2.22,2.22,0,0,0,2.7.88c.54-.27.74-1.46.63-2-.16-.78-2.3-2.83-2.74-3.36-1.7-2.07-3.56-4-5.34-6-3.52-4-6.93-8-10.42-12l-2.27-2.62A3.92,3.92,0,1,1,32,32.35c2,2.28,4.06,4.54,6,6.85,1.8,2.11,3.66,4.16,5.44,6.29s7.58,10,9.21,10.37,3.42-1.28,2.16-2.74c-5-5.79-22.18-25.51-22.18-25.51a4.08,4.08,0,0,1,6.15-5.35S54,39.74,59.42,46c1.13,1.28,3.07-.28,2.95-1.69-.06-.69-1.46-2-1.9-2.58-.65-.83-1.34-1.62-2-2.41-1.58-1.76-3.14-3.52-4.67-5.32-2.78-3.26-5.62-6.48-8.43-9.72l-1.71-2a3.92,3.92,0,1,1,5.91-5.14h0c.77.88,1.55,1.76,2.31,2.66q2.82,3.33,5.73,6.61c2.48,2.77,5,5.57,7.37,8.41S76.15,50.2,78.12,49.49c1.39-.49,1.55-2.34,2-3.56S81,43.34,81.4,42a89.18,89.18,0,0,0,2.11-9.15c.24-1.3.46-2.63.58-3.95.21-2.21,1.58-6.21,3.33-7.73a2,2,0,0,1,.92-.5,2.63,2.63,0,0,1,2.26.6A4.67,4.67,0,0,1,92,24.9c0,.52-.93,13.91-.62,18.53.12,1.84.36,4,.62,6.39C93.28,61.38,93.82,76.75,84.66,84.72Z" transform="translate(-4.89 -3.63)"/><g class="cls-11"><path class="cls-12" d="M48.55,19.08c-1-1.16-3.53-3.51-4.7-2.48a2.79,2.79,0,0,0-.25,3.95h0c6,6.85,12.31,13.53,18.09,20.56,2.31,2.81,5.7,5.4,1.2,8-3.43,2-4.64-1.89-6.57-3.83-4.64-4.65-8.81-10-13-15C42,28.63,40.55,27,39.15,25.43l-2.53-2.9a3,3,0,0,0-4.45,3.89l18.42,21c1.58,1.8,4.68,3.77,5.22,6.24A3.1,3.1,0,0,1,52,57.5c-2-.59-3.55-3.18-4.89-4.62-1.83-2-8.7-8.86-10.25-11-2.45-3.45-4.67-6.8-7.7-8.31-4-2-4.18.48-2.76,3.12,2.62,4.91,9.09,10.19,14.87,17.2,3.51,4.26,10.9,8.92,6.07,11.27-5.54,2.69-11.1-9.87-15.76-13.77-1.94-1.63-4.86-4.66-5.28-.56-.19,1.83,3.05,4.57,5.35,7.25C36.93,64.16,46.3,76.73,50,79.49c5.56,4.12,8.73-8.61,10.95-12.14A15.79,15.79,0,0,1,70.53,60c9.14-3.18,7-10.68,3.55-13.32C65.11,39.71,48.55,19.08,48.55,19.08Z" transform="translate(-4.89 -3.63)"/><path class="cls-13" d="M32.54,22.35a2.76,2.76,0,0,1,2.6-.56,3.25,3.25,0,0,1,1.5,1l1.87,2.14.66.75c1.06,1.22,2.13,2.43,3.18,3.67.29.34.68.8,1,1.15l1.48,1.79c3.67,4.45,7.37,9,11.43,13.09a13.43,13.43,0,0,1,1.26,1.56c1.32,1.81,2.67,3.77,5.29,2.37a6.09,6.09,0,0,0,1.48-1,2.72,2.72,0,0,0,.81-1.4A3.92,3.92,0,0,0,64.14,44c-.58-.85-1.35-1.71-2-2.59-.56-.7-1.14-1.38-1.72-2.06l-1-1.16c-4-4.74-8.24-9.35-12.39-14l-3-3.3A2.92,2.92,0,0,1,44,17a1,1,0,0,1,.34-.24c1-.48,3.2,1.33,4.16,2.42C48.52,19.27,65,39.83,74,46.78a7.86,7.86,0,0,1,2.83,5.1,6.57,6.57,0,0,1-1.4,4.82h0a9.8,9.8,0,0,1-3.56,2.61c-.48.21-1,.42-1.55.62a17.38,17.38,0,0,0-5.49,2.77,17.74,17.74,0,0,0-4,4.58,57.59,57.59,0,0,0-2.43,5.27c-1.93,4.37-4.46,9.13-8,6.82a8.89,8.89,0,0,1-2.31-1.83c-3-3-7.36-8.55-11.27-13.43-1.82-2.26-3.53-4.37-5-6-.3-.35-.61-.69-.92-1l-1.84-2c-1.48-1.59-2.8-3.16-2.67-4.27.27-2.26,1.33-2.06,2.45-1.4.24.15.48.31.7.48.73.53,1.47,1.23,2.12,1.8a23.39,23.39,0,0,1,3,3.44c3.92,5.1,8.27,12.27,12.66,10.14a3.47,3.47,0,0,0,1.13-.8h0A2.08,2.08,0,0,0,48.79,62c-.84-1.92-3.45-4.16-5.69-6.43-.55-.55-1.06-1.1-1.52-1.64l-1.52-1.78c-2.46-2.84-5-5.4-7.23-7.76a40.75,40.75,0,0,1-6.15-7.63,7.2,7.2,0,0,1-.81-2.09c-.22-1.14.23-1.92,1.53-1.67a7.47,7.47,0,0,1,1.91.73c2.16,1.15,3.92,3.23,5.65,5.6l.49.67c.47.67,1,1.37,1.51,2.1,1,1.39,3.87,4.39,6.35,7,.85.89,1.65,1.71,2.31,2.39.42.43.79.83,1.1,1.17l.48.51A26.16,26.16,0,0,0,50.75,57a4.21,4.21,0,0,0,1.41.69,2.91,2.91,0,0,0,2.46-.44A3.42,3.42,0,0,0,56,53.77a4.4,4.4,0,0,0-.31-1c-.85-1.88-3-3.46-4.42-4.91l-.4-.41c-.38-.42-.75-.84-1.12-1.27L32.41,26.49a3.24,3.24,0,0,1-.78-1.69A2.72,2.72,0,0,1,32.54,22.35Z" transform="translate(-4.89 -3.63)"/><path class="cls-14" d="M32.63,22.45A2.55,2.55,0,0,1,35.21,22a3.8,3.8,0,0,1,1.46,1c.48.56,1.37,1.57,1.86,2.13l.66.75c1.06,1.21,2.12,2.43,3.16,3.66.26.29.71.84,1,1.14l1.48,1.79c3.63,4.42,7.3,9,11.33,13A12.54,12.54,0,0,1,57.38,47c1.29,1.78,2.67,3.76,5.28,2.47a6.54,6.54,0,0,0,1.5-1A2.87,2.87,0,0,0,65,47.14a3.61,3.61,0,0,0-.62-2.86,22.8,22.8,0,0,0-1.92-2.64c-.55-.7-1.13-1.38-1.71-2.06-.32-.39-.65-.77-1-1.15-4-4.74-8.22-9.36-12.35-14-1-1.1-2-2.18-3-3.27a3.15,3.15,0,0,1-.42-3.81,1,1,0,0,1,.26-.25c.81-.66,3,1,4,2.13.14.18,16.6,20.67,25.57,27.62A7.71,7.71,0,0,1,76.71,52a6.71,6.71,0,0,1-1.48,4.76h0a9.93,9.93,0,0,1-3.58,2.53c-.47.21-1,.42-1.53.61a17.22,17.22,0,0,0-5.44,2.8,17.75,17.75,0,0,0-3.93,4.55,49.74,49.74,0,0,0-2.36,5.1c-1.84,4.18-4.25,8.77-7.55,6.94a5.43,5.43,0,0,1-2.39-1.58c-2.89-2.82-7.38-8.51-11.37-13.48-1.82-2.27-3.54-4.39-5-6.08l-.91-1c-.61-.67-1.25-1.34-1.86-2-1.45-1.56-2.86-3.2-2.72-4.26.3-2.24,1.4-1.77,2.47-1.12.18.1.51.35.69.48.71.54,1.44,1.23,2.1,1.83a28,28,0,0,1,3,3.45c3.88,5.09,8.21,12.07,12.63,9.93a3.72,3.72,0,0,0,1.13-.79h0a2.14,2.14,0,0,0,.35-2.4c-.73-2-3.3-4.19-5.58-6.49-.54-.54-1.06-1.09-1.53-1.63l-1.52-1.76c-2.45-2.85-5-5.42-7.21-7.77A43.36,43.36,0,0,1,27,37a7.91,7.91,0,0,1-.87-2.08c-.26-1.14.2-1.93,1.5-1.63a7.57,7.57,0,0,1,1.88.79c2.12,1.19,3.85,3.3,5.58,5.67.12.17.36.49.48.67.46.64,1,1.34,1.53,2.07,1.12,1.47,3.93,4.43,6.36,7l2.31,2.39L46.81,53l.47.51a20.44,20.44,0,0,0,3.61,3.72,4.17,4.17,0,0,0,1.43.63,3,3,0,0,0,2.44-.51,3.54,3.54,0,0,0,1.35-3.44,4.59,4.59,0,0,0-.28-1C55,51,52.94,49.41,51.49,48l-.41-.42q-.59-.63-1.14-1.26L32.67,26.56a3.82,3.82,0,0,1-.84-1.65A2.54,2.54,0,0,1,32.63,22.45Z" transform="translate(-4.89 -3.63)"/><path class="cls-15" d="M32.71,22.56a2.39,2.39,0,0,1,2.57-.38,4.44,4.44,0,0,1,1.42,1.06l1.85,2.12.66.75c1,1.2,2.11,2.41,3.15,3.64l1,1.14,1.47,1.79C48.38,37.05,52,41.55,56,45.55a14.47,14.47,0,0,1,1.25,1.56c1.27,1.73,2.67,3.74,5.26,2.56a6.41,6.41,0,0,0,1.53-1A3.23,3.23,0,0,0,65,47.44a3.49,3.49,0,0,0-.32-2.84,15.21,15.21,0,0,0-1.8-2.69c-.54-.7-1.11-1.38-1.7-2.06l-1-1.15C56.22,34,52,29.35,47.9,24.76c-1-1.1-2-2.17-3-3.25a3.46,3.46,0,0,1-.75-3.74,1,1,0,0,1,.19-.28c.42-1,2.85.67,3.9,1.86C48.46,19.61,64.86,40,73.83,47A7.55,7.55,0,0,1,76.58,52,6.78,6.78,0,0,1,75,56.73h0a10.06,10.06,0,0,1-3.59,2.45c-.48.2-1,.4-1.54.6a17.1,17.1,0,0,0-5.37,2.81,18.07,18.07,0,0,0-3.91,4.53,47.32,47.32,0,0,0-2.28,4.93c-1.75,4-4,8.42-7.11,7.07a4,4,0,0,1-2.46-1.35C46,75.11,41.37,69.32,37.3,64.26c-1.83-2.28-3.55-4.42-5-6.12-.3-.36-.61-.71-.92-1-.61-.67-1.25-1.35-1.86-2-1.43-1.54-2.94-3.24-2.79-4.26.33-2.23,1.49-1.49,2.5-.84.15.08.52.37.68.49A25.8,25.8,0,0,1,32,52.33a29.91,29.91,0,0,1,3,3.47c3.84,5.07,8.15,11.86,12.6,9.7a4.27,4.27,0,0,0,1.14-.78h0a2.25,2.25,0,0,0,.46-2.39c-.63-2-3.14-4.21-5.47-6.54-.54-.54-1.06-1.08-1.54-1.62l-1.54-1.76c-2.43-2.85-5-5.42-7.19-7.77a46.51,46.51,0,0,1-6.23-7.54A9.23,9.23,0,0,1,26.26,35c-.32-1.16.16-1.95,1.44-1.61a7.8,7.8,0,0,1,1.86.84c2.08,1.23,3.79,3.37,5.51,5.73l.48.68c.45.62,1,1.32,1.54,2.06,1.2,1.53,4,4.46,6.37,6.93.89.91,1.69,1.74,2.3,2.38.4.41.76.81,1.09,1.18l.46.52A17.84,17.84,0,0,0,51,57.39a4,4,0,0,0,1.44.56,3.1,3.1,0,0,0,2.43-.57,3.63,3.63,0,0,0,1.37-3.44A4.52,4.52,0,0,0,56,53c-.75-1.94-2.8-3.54-4.28-5l-.41-.42c-.4-.42-.78-.84-1.14-1.25C46.29,41.94,36.72,31,32.88,26.62A4.35,4.35,0,0,1,32,25,2.36,2.36,0,0,1,32.71,22.56Z" transform="translate(-4.89 -3.63)"/><path class="cls-16" d="M32.81,22.66a2.23,2.23,0,0,1,2.54-.29,5.11,5.11,0,0,1,1.38,1.11l1.84,2.11.66.74c1.05,1.21,2.1,2.41,3.13,3.64l1,1.14,1.47,1.77c3.56,4.34,7.19,8.8,11.16,12.77a15.31,15.31,0,0,1,1.24,1.55c1.23,1.7,2.67,3.74,5.24,2.66A6.33,6.33,0,0,0,64,49a3.73,3.73,0,0,0,1-1.22,3.37,3.37,0,0,0,0-2.81,11.31,11.31,0,0,0-1.66-2.76c-.53-.7-1.12-1.38-1.7-2.05-.33-.38-.66-.76-1-1.15-4-4.73-8.17-9.35-12.27-13.92-1-1.09-2-2.14-3-3.21a4,4,0,0,1-1.08-3.67,1,1,0,0,1,.12-.29c.12-1.21,2.67.32,3.77,1.57.29.35,16.64,20.69,25.61,27.65a7.41,7.41,0,0,1,2.7,5,6.76,6.76,0,0,1-1.63,4.63h0a10.3,10.3,0,0,1-3.6,2.38c-.48.2-1,.39-1.52.59a16.69,16.69,0,0,0-5.32,2.83,18.37,18.37,0,0,0-3.87,4.51,45.3,45.3,0,0,0-2.21,4.75c-1.65,3.79-3.8,8.07-6.66,7.19a3.1,3.1,0,0,1-2.54-1.1c-2.76-2.52-7.42-8.41-11.56-13.57-1.83-2.28-3.57-4.44-5-6.15-.31-.36-.62-.72-.93-1.06-.6-.68-1.25-1.36-1.86-2-1.41-1.51-3-3.28-2.85-4.26.36-2.2,1.57-1.19,2.52-.56.13.07.54.4.67.5a22.61,22.61,0,0,1,2,1.87A35.24,35.24,0,0,1,35,56.14c3.81,5.06,8.09,11.65,12.57,9.48a4.27,4.27,0,0,0,1.14-.78h0a2.31,2.31,0,0,0,.57-2.36c-.52-2-3-4.24-5.35-6.6-.54-.54-1.06-1.08-1.54-1.61s-1.05-1.18-1.53-1.75c-2.43-2.85-5-5.43-7.18-7.77a49.13,49.13,0,0,1-6.27-7.51,10.19,10.19,0,0,1-1-2c-.37-1.17.13-2,1.39-1.58a8.23,8.23,0,0,1,1.84.89c2,1.27,3.72,3.43,5.43,5.79l.48.67c.43.6,1,1.3,1.56,2.05,1.3,1.62,4.06,4.5,6.38,6.91.91.93,1.71,1.77,2.3,2.39.38.4.74.8,1.08,1.18l.46.52a15.4,15.4,0,0,0,3.71,3.58,4.47,4.47,0,0,0,1.47.49A3.19,3.19,0,0,0,55,57.45,3.77,3.77,0,0,0,56.39,54a4.05,4.05,0,0,0-.24-1c-.7-2-2.71-3.57-4.21-5l-.4-.41c-.41-.42-.8-.83-1.16-1.24L33.13,26.69a5.24,5.24,0,0,1-1-1.59A2.21,2.21,0,0,1,32.81,22.66Z" transform="translate(-4.89 -3.63)"/><path class="cls-17" d="M32.9,22.76a2.09,2.09,0,0,1,2.51-.2,6.24,6.24,0,0,1,1.33,1.15c.28.32,1.57,1.79,1.84,2.11s.44.49.65.74c1.05,1.2,2.1,2.4,3.13,3.62l.94,1.14,1.46,1.77c3.53,4.29,7.13,8.71,11.07,12.66a13.06,13.06,0,0,1,1.24,1.54C58.28,49,59.74,51,62.3,50.05a6.59,6.59,0,0,0,1.57-.84A4.12,4.12,0,0,0,64.94,48a3.32,3.32,0,0,0,.28-2.79,9.19,9.19,0,0,0-1.54-2.81c-.52-.7-1.1-1.38-1.69-2l-1-1.14c-3.95-4.73-8.14-9.35-12.23-13.9-1-1.09-2-2.13-3-3.19a4.9,4.9,0,0,1-1.42-3.6,1.65,1.65,0,0,1,0-.31c-.16-1.43,2.51,0,3.64,1.28.36.45,16.65,20.72,25.62,27.67a7.3,7.3,0,0,1,2.66,5,6.81,6.81,0,0,1-1.7,4.57h0A10.55,10.55,0,0,1,71,59.07l-1.51.58a16.49,16.49,0,0,0-5.27,2.85A18.44,18.44,0,0,0,60.39,67a39.87,39.87,0,0,0-2.14,4.58c-1.57,3.59-3.58,7.71-6.22,7.31-.83.28-1.64,0-2.61-.86C46.73,75.67,42,69.66,37.76,64.4c-1.84-2.29-3.58-4.45-5-6.19-.31-.37-.62-.72-.93-1.07-.6-.68-1.25-1.36-1.87-2-1.39-1.48-3.09-3.31-2.92-4.26.41-2.18,1.65-.9,2.55-.28.1.06.56.43.67.51a22.46,22.46,0,0,1,2,1.89,39.89,39.89,0,0,1,2.89,3.52c3.78,5,8,11.44,12.54,9.25A4.21,4.21,0,0,0,48.8,65h0a2.44,2.44,0,0,0,.68-2.34c-.41-2.06-2.82-4.27-5.24-6.66-.54-.53-1.07-1.06-1.55-1.6s-1.07-1.17-1.54-1.73c-2.41-2.86-4.93-5.45-7.16-7.78a52.45,52.45,0,0,1-6.31-7.47,10.68,10.68,0,0,1-1-2c-.43-1.18.09-2,1.34-1.56a8.19,8.19,0,0,1,1.81.94,22.84,22.84,0,0,1,5.36,5.85c.07.1.41.57.48.68.41.57.95,1.27,1.57,2,1.39,1.69,4.12,4.53,6.4,6.89.91,1,1.73,1.78,2.29,2.37.37.39.73.8,1.07,1.2l.45.52a13.51,13.51,0,0,0,3.77,3.5,4.31,4.31,0,0,0,1.49.42,3.32,3.32,0,0,0,2.39-.71,3.88,3.88,0,0,0,1.43-3.43,4.08,4.08,0,0,0-.21-1c-.65-2-2.62-3.61-4.14-5.06l-.42-.41c-.41-.42-.81-.82-1.16-1.22L33.37,26.76a6.49,6.49,0,0,1-1-1.56A2.06,2.06,0,0,1,32.9,22.76Z" transform="translate(-4.89 -3.63)"/><path class="cls-18" d="M33,22.86a2,2,0,0,1,2.51-.11A9,9,0,0,1,36.78,24l1.83,2.1.65.74c1,1.19,2.1,2.39,3.11,3.61l.94,1.13,1.45,1.76c3.49,4.26,7.07,8.64,11,12.55A15.19,15.19,0,0,1,57,47.38c1.17,1.62,2.65,3.7,5.21,2.85a6.06,6.06,0,0,0,1.59-.79,5,5,0,0,0,1.14-1.11,3.37,3.37,0,0,0,.58-2.77,7.31,7.31,0,0,0-1.42-2.86c-.51-.7-1.1-1.38-1.68-2.05l-1-1.14c-3.94-4.72-8.12-9.34-12.19-13.87-1-1.08-2-2.11-3-3.17A6.26,6.26,0,0,1,44.45,19c0-.12,0-.23,0-.33-.24-1.69,2.33-.35,3.51,1,.43.54,16.67,20.74,25.65,27.69a7.18,7.18,0,0,1,2.61,5c.1,1.65-.67,3-1.78,4.5h0A10.62,10.62,0,0,1,70.78,59l-1.51.56a16.76,16.76,0,0,0-5.21,2.87,18.71,18.71,0,0,0-3.78,4.47,37.36,37.36,0,0,0-2.07,4.41c-1.48,3.39-3.36,7.36-5.77,7.44-.87.43-1.69.22-2.69-.62C47.14,75.94,42.3,69.83,38,64.47c-1.85-2.29-3.59-4.47-5.08-6.23-.32-.37-.62-.73-.93-1.07-.6-.69-1.26-1.38-1.88-2.05-1.36-1.45-3.16-3.36-3-4.26.44-2.15,1.74-.61,2.58,0l.65.52a18,18,0,0,1,2,1.92,43.67,43.67,0,0,1,2.86,3.53c3.75,5,8,11.24,12.52,9a4.45,4.45,0,0,0,1.15-.77h0a2.55,2.55,0,0,0,.79-2.32c-.3-2.1-2.66-4.29-5.13-6.71C44,55.53,43.46,55,43,54.47s-1.07-1.16-1.55-1.73C39,49.89,36.51,47.29,34.28,45a55.61,55.61,0,0,1-6.34-7.43,11.74,11.74,0,0,1-1.05-2c-.49-1.18.05-2,1.29-1.53A8.61,8.61,0,0,1,30,35a24.94,24.94,0,0,1,5.29,5.92l.48.68c.39.55.94,1.24,1.58,2,1.48,1.77,4.19,4.58,6.41,6.87.93,1,1.75,1.81,2.29,2.39.36.38.71.79,1.05,1.2l.45.52A12,12,0,0,0,51.34,58a4.28,4.28,0,0,0,1.5.36,3.47,3.47,0,0,0,2.37-.79,4,4,0,0,0,1.46-3.42,4.59,4.59,0,0,0-.19-1c-.6-2-2.53-3.65-4.07-5.1L52,47.7c-.42-.42-.82-.82-1.17-1.22L33.61,26.82a8.06,8.06,0,0,1-1.07-1.52A2,2,0,0,1,33,22.86Z" transform="translate(-4.89 -3.63)"/><path class="cls-19" d="M33.07,23a1.89,1.89,0,0,1,2.48,0,12.18,12.18,0,0,1,1.25,1.24l1.83,2.08.65.74c1,1.19,2.08,2.39,3.09,3.6l.93,1.13,1.45,1.76c3.46,4.21,7,8.56,10.89,12.44a14,14,0,0,1,1.24,1.53c1.15,1.58,2.65,3.68,5.19,3a5.61,5.61,0,0,0,1.61-.74,5.83,5.83,0,0,0,1.21-1.06,3.44,3.44,0,0,0,.88-2.74A6.33,6.33,0,0,0,64.48,43c-.5-.69-1.09-1.37-1.67-2l-1-1.14c-3.92-4.72-8.09-9.34-12.15-13.85-1-1.08-2-2.09-3-3.14a8.43,8.43,0,0,1-2.09-3.44c0-.13-.06-.25-.09-.36-.6-1.91,2.14-.67,3.37.72.5.63,16.68,20.75,25.66,27.7a7,7,0,0,1,2.57,5c.08,1.65-.75,3-1.85,4.42h0A10.79,10.79,0,0,1,70.56,59l-1.5.56a16.36,16.36,0,0,0-5.15,2.88,19.09,19.09,0,0,0-3.75,4.45,39.16,39.16,0,0,0-2,4.23c-1.38,3.2-3.14,7-5.33,7.57a2.13,2.13,0,0,1-2.75-.38C47.54,76.21,42.61,70,38.23,64.55c-1.84-2.31-3.6-4.49-5.1-6.27l-.93-1.09c-.6-.69-1.26-1.38-1.89-2.06-1.34-1.43-3.23-3.39-3-4.25.48-2.14,1.82-.33,2.6.28l.65.52a17.86,17.86,0,0,1,1.95,1.94c.91,1,1.85,2.25,2.82,3.56,3.72,5,7.92,11,12.49,8.8a4.65,4.65,0,0,0,1.15-.75h0a2.7,2.7,0,0,0,.9-2.31c-.18-2.13-2.5-4.32-5-6.76-.54-.53-1.08-1-1.58-1.58s-1.08-1.16-1.55-1.72c-2.38-2.86-4.9-5.47-7.13-7.79a60.93,60.93,0,0,1-6.38-7.39,13,13,0,0,1-1.1-2c-.54-1.19,0-2,1.24-1.5a9.47,9.47,0,0,1,1.76,1,26.46,26.46,0,0,1,5.21,6l.48.67c.38.53.93,1.22,1.6,2,1.58,1.84,4.25,4.61,6.42,6.85l2.29,2.38c.35.37.7.78,1,1.2l.45.53a10.6,10.6,0,0,0,3.87,3.35,4,4,0,0,0,1.52.3,3.63,3.63,0,0,0,2.36-.84,4.15,4.15,0,0,0,1.48-3.43,4.24,4.24,0,0,0-.15-1c-.56-2.05-2.45-3.68-4-5.13-.13-.14-.27-.27-.41-.4a16.57,16.57,0,0,1-1.18-1.21L33.85,26.89a13.83,13.83,0,0,1-1.13-1.48A1.9,1.9,0,0,1,33.07,23Z" transform="translate(-4.89 -3.63)"/><path class="cls-20" d="M33.16,23.07a1.82,1.82,0,0,1,2.46.07c.07,0,1.16,1.23,1.21,1.29l1.82,2.07.64.74c1,1.19,2.07,2.38,3.08,3.59L43.3,32l1.44,1.75c3.43,4.18,7,8.49,10.8,12.33a13.83,13.83,0,0,1,1.23,1.54c1.12,1.54,2.65,3.65,5.17,3a5.68,5.68,0,0,0,1.64-.7,7.24,7.24,0,0,0,1.28-1A3.68,3.68,0,0,0,66,46.2a5.38,5.38,0,0,0-1.17-3,25.15,25.15,0,0,0-1.67-2c-.33-.38-.66-.75-1-1.13-3.9-4.72-8.07-9.34-12.11-13.83-1-1.08-2-2.08-3-3.12a12,12,0,0,1-2.42-3.37l-.17-.38c-1-2.11,2-1,3.25.44.57.71,16.7,20.76,25.68,27.72a6.89,6.89,0,0,1,2.51,4.93A5.42,5.42,0,0,1,74,56.81h0a11.06,11.06,0,0,1-3.66,2.08l-1.49.54a16.06,16.06,0,0,0-5.09,2.91A18.89,18.89,0,0,0,60,66.76a34.88,34.88,0,0,0-1.92,4.06c-1.29,3-2.91,6.65-4.88,7.68a2,2,0,0,1-2.83-.14c-2.46-1.91-7.5-8.21-11.95-13.76-1.85-2.31-3.61-4.51-5.13-6.31l-.93-1.09c-.6-.7-1.26-1.39-1.9-2.08-1.32-1.39-3.3-3.42-3.1-4.25.52-2.11,1.9,0,2.62.56l.64.54a16.92,16.92,0,0,1,1.93,2c.89,1,1.82,2.28,2.78,3.58,3.69,5,7.86,10.82,12.46,8.58A4.9,4.9,0,0,0,49,65.33h0a2.86,2.86,0,0,0,1-2.27c-.06-2.17-2.34-4.34-4.89-6.82-.54-.51-1.07-1-1.58-1.56S42.43,53.52,42,53c-2.38-2.86-4.89-5.47-7.11-7.79a66.29,66.29,0,0,1-6.42-7.35A15.41,15.41,0,0,1,27.3,35.9c-.6-1.21,0-2,1.19-1.48a9,9,0,0,1,1.73,1.09,29.27,29.27,0,0,1,5.14,6.05l.48.67c.36.51.92,1.2,1.61,2,1.67,1.91,4.31,4.64,6.43,6.83,1,1,1.79,1.85,2.29,2.38.34.36.68.78,1,1.21l.44.53a9.74,9.74,0,0,0,3.93,3.28,4.24,4.24,0,0,0,1.54.23,3.82,3.82,0,0,0,2.34-.91A4.36,4.36,0,0,0,57,54.34a4.82,4.82,0,0,0-.14-1c-.5-2.08-2.35-3.72-3.93-5.17l-.42-.39c-.43-.41-.84-.81-1.19-1.2L34.09,27c-.05-.06-1.18-1.39-1.18-1.46A1.8,1.8,0,0,1,33.16,23.07Z" transform="translate(-4.89 -3.63)"/><path class="cls-21" d="M53.65,78.4a2,2,0,0,1-2.9.1c-2.39-1.77-7.52-8.16-12-13.81-2.25-2.8-4.38-5.45-6.09-7.45-.6-.7-1.26-1.4-1.91-2.09-1.29-1.37-3.37-3.46-3.16-4.24.56-2.1,2,.25,2.65.83l.63.55a35,35,0,0,1,4.65,5.58c3.65,5,7.79,10.61,12.43,8.35a4.86,4.86,0,0,0,1.16-.74h0a3.06,3.06,0,0,0,1.12-2.26C50.24,61,48,58.85,45.4,56.34a39.57,39.57,0,0,1-3.15-3.26c-2.36-2.86-4.88-5.48-7.09-7.79-3.31-3.46-6.17-6.43-7.66-9.22-.64-1.21-.05-2,1.14-1.45,2.56,1.28,4.61,4.18,6.78,7.26l.48.67c1.19,1.68,5.16,5.79,8.06,8.78,1,1,1.81,1.87,2.29,2.38.32.35.66.77,1,1.22,1.21,1.5,2.58,3.2,4.42,3.74a4.06,4.06,0,0,0,3.88-.82A4.54,4.54,0,0,0,57,53.43c-.45-2.11-2.27-3.76-3.86-5.21a22,22,0,0,1-1.63-1.57l-18.42-21a1.73,1.73,0,0,1,2.55-2.33.12.12,0,0,1,0,0l3,3.4c1.25,1.43,2.5,2.86,3.7,4.31l2.37,2.87c3.39,4.13,6.9,8.4,10.71,12.22a13,13,0,0,1,1.23,1.54C58,49.47,60,52.19,63.5,50.16a8.68,8.68,0,0,0,1.34-.93,4,4,0,0,0,1.48-2.7c.12-1.87-1.32-3.49-2.71-5.07-.33-.37-.66-.74-1-1.12-3.88-4.72-8-9.34-12.06-13.81-2-2.26-4.57-4.15-6.07-6.79-1.31-2.3,1.8-1.34,3.12.15.64.81,16.72,20.78,25.7,27.74a6.78,6.78,0,0,1,2.47,4.91,5.33,5.33,0,0,1-2,4.29h0a11.08,11.08,0,0,1-3.67,2,18.19,18.19,0,0,0-6.52,3.45,19.25,19.25,0,0,0-3.67,4.41,30.07,30.07,0,0,0-1.85,3.88C56.88,73.39,55.39,76.88,53.65,78.4Z" transform="translate(-4.89 -3.63)"/></g><g class="cls-11"><path class="cls-12" d="M86.74,26.5c-.67,2.64-.19,5.05-.88,7.74s-.93,5.43-2,8.08C82.29,46.14,80.78,50,79,53.71c-1.61,3.35-3.7,6.89-4,10.69-.24,3.22-1.28,7.13-1.29,10.21,0,6.37-6.48,7.57-11.54,7.3-4.62-.24-9.15,1.87-5.33,6.74,2.23,2.84,5.5,4,8.88,4.76,5.46,1.26,12.42-1.14,16.9-4C88,86,91,80.76,91.86,74.41A74.48,74.48,0,0,0,92.14,63c-.14-7.8-1.46-15.61-1.22-23.27.13-3.75.59-7.26.28-11-.12-1.5,0-3.64-1.22-4.81C88.08,22.06,87.19,24.7,86.74,26.5Z" transform="translate(-4.89 -3.63)"/><path class="cls-13" d="M89.9,24.81c-1.87-1.86-2.75.78-3.17,2.53-.6,2.47-.25,4.88-1,7.62s-1,5.33-2,7.95c-1.52,3.8-3,7.64-4.7,11.27-1,2.16-2.15,4.32-2.93,6.41a15.14,15.14,0,0,0-.93,4.15c-.22,3.18-1.11,7.06-1.13,10.08a7,7,0,0,1-.86,3.58c-2,3.31-6.59,3.95-10.36,3.83a14.54,14.54,0,0,0-2.19.11c-3,.42-5.83,1.89-4.25,5a7.76,7.76,0,0,0,.74,1.15,10.68,10.68,0,0,0,3.12,2.67,19.6,19.6,0,0,0,5.64,2,17.71,17.71,0,0,0,7.62-.27,30.65,30.65,0,0,0,9-3.76c5.45-3.42,8.43-9,9.17-15.31,0-.2,0-.42.07-.62a92.34,92.34,0,0,0,0-10.91c-.18-7.17-1.25-14.91-1-22.3.1-2.87.38-5.56.35-8.2,0-.77,0-1.55-.1-2.35C91,28,91,25.91,89.9,24.81Z" transform="translate(-4.89 -3.63)"/><path class="cls-14" d="M89.83,25.68c-1.83-1.83-2.71.8-3.1,2.52-.53,2.28-.32,4.7-1.06,7.49a67.7,67.7,0,0,1-2,7.82c-1.48,3.78-2.95,7.59-4.55,11.15-1,2.23-2.09,4.39-2.83,6.34a14,14,0,0,0-.88,4.1c-.21,3.13-1,7-1,9.94a7,7,0,0,1-.79,3.54c-2,3.39-6.46,4-10.12,4a14,14,0,0,0-2.15.16c-2.79.42-5.9,1.59-4.61,4.49a5.16,5.16,0,0,0,.69,1.15A10.39,10.39,0,0,0,60.5,91a18.38,18.38,0,0,0,5.57,1.9,17.39,17.39,0,0,0,7.5-.36,31.7,31.7,0,0,0,8.92-3.7c5.49-3.41,8.5-9.25,9.1-15.61,0-.21,0-.41,0-.63a110.39,110.39,0,0,0-.16-11.06c-.2-6.54-1-14.21-.74-21.33.11-2.79.36-5.4.32-7.84,0-.72,0-1.48-.1-2.25C90.84,28.67,90.86,26.71,89.83,25.68Z" transform="translate(-4.89 -3.63)"/><path class="cls-15" d="M89.76,26.54c-1.81-1.8-2.68.82-3.05,2.5-.46,2.1-.38,4.53-1.14,7.36a75.82,75.82,0,0,1-2.06,7.7c-1.43,3.75-2.88,7.54-4.39,11-1,2.32-2.06,4.47-2.75,6.28a13.59,13.59,0,0,0-.83,4c-.19,3.09-.81,6.89-.8,9.81a7.25,7.25,0,0,1-.72,3.5c-2,3.47-6.34,4.07-9.87,4.12a13.69,13.69,0,0,0-2.12.19c-2.53.43-6,1.32-5,4a5,5,0,0,0,.64,1.15,10.19,10.19,0,0,0,3,2.58,17.82,17.82,0,0,0,5.51,1.84,17.47,17.47,0,0,0,7.38-.45,33.29,33.29,0,0,0,8.79-3.65C88,85.11,91,79,91.45,72.6c0-.21,0-.43,0-.64.16-3.73-.19-7.48-.33-11.21-.23-5.92-.8-13.5-.52-20.36.12-2.74.36-5.26.3-7.49,0-.67,0-1.4-.1-2.14C90.73,29.37,90.72,27.51,89.76,26.54Z" transform="translate(-4.89 -3.63)"/><path class="cls-16" d="M89.68,27.41c-1.78-1.78-2.64.84-3,2.47-.39,1.93-.44,4.36-1.23,7.24-.67,2.47-1.13,5-2.08,7.57-1.39,3.72-2.8,7.5-4.24,10.89-1,2.39-2,4.56-2.65,6.2a13.09,13.09,0,0,0-.78,4c-.17,3-.65,6.8-.65,9.67a7.62,7.62,0,0,1-.63,3.46c-1.94,3.56-6.23,4.14-9.63,4.26a14.71,14.71,0,0,0-2.08.23c-2.29.44-6.07,1.06-5.33,3.5A3.75,3.75,0,0,0,58,88a9.83,9.83,0,0,0,3,2.54A16.91,16.91,0,0,0,73.7,91.8a34.94,34.94,0,0,0,8.66-3.59c5.57-3.39,8.63-9.84,9-16.21,0-.21,0-.43,0-.65.07-3.77-.34-7.58-.51-11.35-.24-5.3-.58-12.8-.28-19.39.13-2.68.35-5.11.28-7.13,0-.63,0-1.33-.1-2C90.62,30.08,90.58,28.31,89.68,27.41Z" transform="translate(-4.89 -3.63)"/><path class="cls-17" d="M89.61,28.28c-1.75-1.76-2.61.85-2.91,2.45a66.41,66.41,0,0,1-1.32,7.11c-.67,2.39-1.19,4.91-2.1,7.45C81.94,49,80.55,52.74,79.2,56.05c-1,2.47-2,4.64-2.56,6.13a12.85,12.85,0,0,0-.74,3.94c-.15,3-.49,6.72-.48,9.54a7.72,7.72,0,0,1-.56,3.43c-1.92,3.64-6.11,4.2-9.38,4.4a14,14,0,0,0-2.05.27c-2,.43-6.19.8-5.69,3a3,3,0,0,0,.54,1.14,9.72,9.72,0,0,0,3,2.5,16.18,16.18,0,0,0,5.37,1.69,17,17,0,0,0,7.15-.63A37.44,37.44,0,0,0,82.3,87.9c5.61-3.37,8.69-10.13,8.88-16.51,0-.21,0-.43,0-.65,0-3.83-.48-7.69-.68-11.5-.25-4.68-.36-12.1,0-18.43.14-2.62.32-5,.24-6.78,0-.58,0-1.25-.1-1.94C90.5,30.78,90.44,29.11,89.61,28.28Z" transform="translate(-4.89 -3.63)"/><path class="cls-18" d="M89.54,29.14c-1.72-1.72-2.59.88-2.85,2.43a57.11,57.11,0,0,1-1.41,7c-.66,2.32-1.23,4.81-2.12,7.32-1.3,3.67-2.66,7.41-3.93,10.64-1,2.54-1.92,4.71-2.47,6.06a12.37,12.37,0,0,0-.68,3.89c-.14,2.93-.34,6.63-.32,9.4a8.34,8.34,0,0,1-.48,3.39c-1.91,3.72-6,4.27-9.15,4.54a13.62,13.62,0,0,0-2,.31c-1.79.42-6.33.56-6.06,2.48a2.5,2.5,0,0,0,.5,1.14,9.59,9.59,0,0,0,2.91,2.46,15.72,15.72,0,0,0,5.31,1.61,16.65,16.65,0,0,0,7-.72,40,40,0,0,0,8.42-3.49C87.88,84.23,91,77.16,91,70.79v-.67c-.11-3.88-.62-7.78-.86-11.64-.25-4.06-.14-11.4.2-17.46.14-2.56.31-4.81.22-6.42,0-.54-.06-1.18-.11-1.84C90.39,31.49,90.3,29.91,89.54,29.14Z" transform="translate(-4.89 -3.63)"/><path class="cls-19" d="M89.47,30c-1.69-1.7-2.56.9-2.79,2.41a51.78,51.78,0,0,1-1.5,6.86C84.54,41.53,83.9,44,83,46.48c-1.25,3.64-2.57,7.36-3.77,10.51-1,2.62-1.88,4.79-2.38,6a12,12,0,0,0-.63,3.83c-.12,2.9-.18,6.56-.16,9.27a8.87,8.87,0,0,1-.4,3.36c-1.88,3.82-5.88,4.34-8.9,4.68a12.89,12.89,0,0,0-2,.35c-1.54.41-6.49.31-6.42,2a2.07,2.07,0,0,0,.45,1.13A9.48,9.48,0,0,0,61.73,90,15.46,15.46,0,0,0,67,91.54a16.42,16.42,0,0,0,6.91-.81,44.37,44.37,0,0,0,8.29-3.44C87.85,84,91,76.57,90.91,70.19c0-.23,0-.45,0-.68-.2-3.93-.75-7.89-1-11.79-.25-3.42.08-10.7.42-16.49a56.51,56.51,0,0,0,.2-6.07c0-.49-.06-1.1-.11-1.74C90.28,32.2,90.16,30.71,89.47,30Z" transform="translate(-4.89 -3.63)"/><path class="cls-20" d="M89.4,30.88c-1.67-1.68-2.54.91-2.73,2.38A49.7,49.7,0,0,1,85.08,40c-.63,2.18-1.33,4.61-2.15,7.07-1.21,3.62-2.5,7.32-3.62,10.38-1,2.71-1.84,4.88-2.29,5.93a11.33,11.33,0,0,0-.58,3.78c-.1,2.84,0,6.46,0,9.13a9.59,9.59,0,0,1-.33,3.31c-1.84,3.92-5.76,4.42-8.67,4.83a12.69,12.69,0,0,0-1.93.39c-1.29.39-6.66.06-6.78,1.47a1.79,1.79,0,0,0,.4,1.13A9.34,9.34,0,0,0,62,89.8a14.59,14.59,0,0,0,5.17,1.46,16.08,16.08,0,0,0,6.79-.89A49.11,49.11,0,0,0,82.09,87c5.72-3.33,8.86-11,8.67-17.4,0-.23,0-.46,0-.68-.29-4-.87-8-1.21-11.94-.24-2.8.31-10,.66-15.52a45.45,45.45,0,0,0,.17-5.71c0-.44-.06-1-.11-1.64C90.16,32.9,90,31.51,89.4,30.88Z" transform="translate(-4.89 -3.63)"/><path class="cls-21" d="M86.66,34.11c-.35,3.75-8,26.19-9.51,29.66-1.28,2.86.19,14.21-.62,16-2.26,5.06-7.78,4.5-10.31,5.39-1,.37-6.87-.21-7.14,1s2.29,3,3.13,3.46A14.88,14.88,0,0,0,74,90a55.11,55.11,0,0,0,8-3.34c6-3.42,9.15-11.9,8.55-18.38-.38-4-1-8.11-1.39-12.09-.32-3.16,1.4-16.73,1-19.91-.14-1.17-.07-3.69-.92-4.55C87.69,30.1,86.8,32.67,86.66,34.11Z" transform="translate(-4.89 -3.63)"/></g><path class="cls-22" d="M88.71,18.94c-2.92.52-5.06,6.55-5.33,9.52-.56,6-4.28,20.6-5.31,19.43-6.95-8-28-32.25-28-32.25a5.23,5.23,0,0,0-8,6.77l.08.1S55.93,38.4,61.06,44.26c.27.31-.53,1.28-.81,1-5.63-6.41-21.16-24.34-21.16-24.34A5.39,5.39,0,0,0,31,28s17.67,20.26,22.77,26.2c.28.32-.48,1.34-.76,1-5.76-6.81-20.82-24-20.82-24a5.23,5.23,0,1,0-7.9,6.86s16.9,19.48,21.27,24.47c.23.26-.69.67-.9.42-3.26-3.8-10-11.49-13.31-15.31a4.6,4.6,0,0,0-6.94,6S38.87,69.37,43,75.14c3.43,4.77,7.53,10.29,9.55,12.61C62.34,99,75.66,99.11,87.46,88.85s6.63-34,5.85-45.46c-.31-4.72.62-18.88.62-18.88C94,21.53,92,18.36,88.71,18.94Z" transform="translate(-4.89 -3.63)"/><path class="cls-23" d="M76.46,25.44A1.42,1.42,0,0,1,75.05,24a1.1,1.1,0,0,1,0-.31c.57-2.46-1.26-7.25-5.89-11.66-4.79-4.57-9.84-6.18-12.32-5.42a1.41,1.41,0,0,1-1.76-.94,1.4,1.4,0,0,1,.93-1.75h0c4-1.21,10,1.23,15.09,6.08,4.91,4.67,7.6,10.43,6.69,14.33A1.41,1.41,0,0,1,76.46,25.44Z" transform="translate(-4.89 -3.63)"/><path class="cls-23" d="M69.29,25.72a.93.93,0,0,1-.94-.94.75.75,0,0,1,0-.21c.38-1.64-.85-4.85-3.93-7.79s-6.57-4.13-8.23-3.62a.94.94,0,0,1-.62-1.78l.07,0c2.63-.81,6.68.83,10.07,4.06s5.08,7,4.48,9.57A.94.94,0,0,1,69.29,25.72Z" transform="translate(-4.89 -3.63)"/><path class="cls-23" d="M24.3,74.79c-3.85,0-8.85-2.58-13-6.83C6.39,62.94,4,57,5.23,53.09a1.41,1.41,0,1,1,2.7.8l0,.08c-.8,2.41.81,7.32,5.41,12s9.41,6.43,11.94,5.89a1.41,1.41,0,1,1,.58,2.75A7.16,7.16,0,0,1,24.3,74.79Z" transform="translate(-4.89 -3.63)"/><path class="cls-23" d="M25.55,67.28c-2.56,0-5.91-1.73-8.68-4.56-3.28-3.36-4.91-7.35-4.05-9.94a1,1,0,0,1,1.19-.6.94.94,0,0,1,.59,1.19h0c-.53,1.61.54,4.89,3.62,8s6.26,4.3,8,3.94a.94.94,0,0,1,1.12.72,1,1,0,0,1-.73,1.12A5.69,5.69,0,0,1,25.55,67.28Z" transform="translate(-4.89 -3.63)"/></g></svg>